<?xml version="1.0" encoding="UTF-8" standalone="no"?>
<!-- Created with Inkscape (http://www.inkscape.org/) -->

<svg
   version="1.1"
   id="svg2"
   width="448.34668"
   height="466.66666"
   viewBox="0 0 448.34668 466.66666"
   sodipodi:docname="africa_004.eps"
   xmlns:inkscape="http://www.inkscape.org/namespaces/inkscape"
   xmlns:sodipodi="http://sodipodi.sourceforge.net/DTD/sodipodi-0.dtd"
   xmlns="http://www.w3.org/2000/svg"
   xmlns:svg="http://www.w3.org/2000/svg">
  <defs
     id="defs6" />
  <sodipodi:namedview
     id="namedview4"
     pagecolor="#ffffff"
     bordercolor="#000000"
     borderopacity="0.25"
     inkscape:showpageshadow="2"
     inkscape:pageopacity="0.0"
     inkscape:pagecheckerboard="0"
     inkscape:deskcolor="#d1d1d1" />
  <g
     id="g8"
     inkscape:groupmode="layer"
     inkscape:label="ink_ext_XXXXXX"
     transform="matrix(1.3333333,0,0,-1.3333333,0,466.66667)">
    <g
       id="g10"
       transform="scale(0.1)">
      <path
         d="m 1650.7,95.8125 12.04,84.3165 -159.95,222.801 11.6,202.754 -163,261.933 45.57,201.853 57.61,78.5 -57.38,255.55 -184.94,226.71 55.52,216.58 -35.43,23.62 -159.9,-6.4 -33.53,95 L 414.375,1874.64 170.789,2087.01 0,2434.68 l 91.7383,373 240.4297,300.57 156.238,83.68 62.055,141.05 198.309,145.43 142.746,-55.86 548.084,77.45 76.46,-169.95 -46.26,-35.56 328.26,-139.4 84.87,130.14 280.73,-93.58 352.99,12.84 -19.71,-256.2 216.44,-388.47 324.94,-357.44 324.26,108.11 -15.93,-247.38 -230.31,-321.22 -127.34,-69.42 -240.24,-304.29 93.67,-247.94 -39.01,-240.56 -267.25,-167.035 37.18,-153.973 -53.62,-99.578 L 2409.88,409.629 2382.8,301.379 2082.48,31.6992 1746.48,0 1650.7,95.8125 Z m -293.51,1785.2575 -59.49,-232.04 171.65,-210.42 69.19,-308.15 -68.96,-94.04 -34.94,-154.779 159.12,-255.711 -11.42,-199.914 162.13,-225.84 -10.96,-76.731 42.23,-42.2341 273.72,25.8091 263.38,236.496 30.45,121.804 120.23,54.106 26.9,49.969 -43.35,179.628 284.93,178.094 30.02,185.053 -101.91,269.76 277.46,351.43 125.73,68.58 206.84,288.5 7.06,109.26 -238.31,-79.45 -24.13,-8.05 -365.25,401.8 -232.24,416.81 14.81,192.46 -279.72,-10.17 -236.95,78.98 -87.7,-134.45 -511.5,217.23 103.31,79.45 -27.07,60.14 -510.294,-72.09 -121.843,47.67 -146.778,-107.65 -64.512,-146.57 -165.847,-88.85 -219.707,-274.64 -80.8518,-328.73 151.3278,-308.04 205.059,-178.76 652.386,88.15 35.5,-100.56 127.68,5.12 102.62,-68.43 z m 1669.36,276.23 28.9,26.25 -28.9,-26.25 z M 2836.7,482.363 l 14.03,161.446 53.66,58.996 -16.24,97.398 47.06,94.106 143.02,53.629 124.43,145.162 77.38,-77.39 -14.02,-140.39 -223.52,-459.097 -121.7,-34.77 -84.1,100.91 z m 287.73,399.485 -133.08,-49.895 -21.99,-43.945 18.28,-109.707 -61.39,-67.531 -8.95,-103.125 30.93,-37.125 39.34,11.226 202.13,415.207 6.92,69.102 -65.65,-76.582 -6.54,-7.625 v 0"
         style="fill:#100f0d;fill-opacity:1;fill-rule:nonzero;stroke:none"
         id="path12" />
    </g>
  </g>
</svg>
