<svg y="0px" x="0px" version="1.1" viewBox="0 0 91.51958224543081 96.48" xmlns:xlink="http://www.w3.org/1999/xlink" xmlns="http://www.w3.org/2000/svg" style="max-height: 500px" width="91.51958224543081" height="96.48"><title>europe, union, countries, continent</title><desc>Created with Sketch.</desc><g fill-rule="evenodd" fill="none" stroke-width="1" stroke="none"><g fill="#000000" transform="translate(-2185.000000, -1734.000000)"><path d="M2203.39215,1822.3957 L2197.85435,1827.48723 L2190.79402,1829.08746 L2185.10847,1825.5728 L2185.10847,1809.86021 L2198.28011,1810.879 L2199.12297,1806.34749 L2189.45676,1800.78703 L2191.52225,1800.06673 L2200.72656,1796.85709 L2206.98309,1794.55695 L2209.70698,1790.24324 L2214.27812,1789.05086 L2212.97965,1781.38533 L2220.61861,1778.07866 L2220.61861,1782.76163 L2221.65085,1786.80362 L2225.89764,1785.54226 L2230.36396,1786.97036 L2235.11667,1784.2059 L2237.7518,1785.28173 L2241.03747,1777.04011 L2244.77787,1778.23926 L2244.77787,1777.273 L2242.7021,1774.4543 L2248.15203,1771.35078 L2254.01377,1772.91253 L2254.01377,1780.85987 L2258.69762,1782.54141 L2262.30255,1789.14706 L2268.8293,1794.73627 L2277.03548,1796.32219 L2274.43198,1802.84677 L2267.76594,1805.9512 L2267.76594,1809.47729 L2262.3466,1809.7656 L2260.79562,1806.17548 L2258.67199,1805.68925 L2255.50062,1815.51114 L2248.00925,1818.53252 L2249.27557,1823.28154 L2247.10663,1828.17395 L2242.1961,1825.75048 L2238.85451,1818.10739 L2239.02937,1815.86168 L2227.19523,1807.7984 L2225.60069,1808.19217 L2226.74394,1810.42058 L2229.88512,1814.85324 L2236.0837,1819.42662 L2231.15758,1820.8869 L2227.52251,1827.40603 L2225.01479,1820.57056 L2220.90003,1816.01814 L2217.53047,1812.14725 L2213.25494,1813.98423 L2207.69285,1813.07085 L2206.71897,1816.03565 L2203.39215,1820.38271 L2203.39215,1822.3957 Z M2187.10847,1812.02088 L2187.10847,1824.45786 L2191.14979,1826.9561 L2196.8928,1825.65444 L2201.39215,1821.51768 L2201.39215,1819.70522 L2204.92466,1815.0894 L2206.32714,1810.81979 L2213.00236,1811.91597 L2218.08123,1809.73383 L2218.56011,1810.28397 L2222.39614,1814.691 L2226.75875,1819.51736 L2227.89871,1822.62463 L2229.80772,1819.20103 L2231.66361,1818.65087 L2228.43912,1816.27181 L2225.07087,1811.51873 L2224.99703,1811.39701 L2222.66757,1806.85642 L2227.58308,1805.64254 L2241.1133,1814.86146 L2240.88728,1817.76425 L2243.73608,1824.28019 L2246.12289,1825.45814 L2247.16142,1823.11555 L2245.62115,1817.33913 L2253.88486,1814.00626 L2257.33188,1803.33067 L2262.22975,1804.45208 L2263.6305,1807.69446 L2265.76594,1807.58086 L2265.76594,1804.67637 L2272.86844,1801.36867 L2274.28167,1797.827 L2267.9303,1796.59954 L2260.72282,1790.42738 L2257.30625,1784.16688 L2252.01377,1782.26684 L2252.01377,1774.44944 L2248.42932,1773.49443 L2245.64619,1775.07931 L2246.77787,1776.61603 L2246.77787,1780.98071 L2242.20413,1779.5144 L2238.86282,1787.89558 L2235.2717,1786.42945 L2230.60133,1789.14601 L2225.87591,1787.63506 L2220.22744,1789.31275 L2218.61861,1783.01297 L2218.61861,1781.12373 L2215.2135,1782.5977 L2216.55608,1790.52358 L2210.97624,1791.97908 L2208.31122,1796.19955 L2207.99221,1796.31683 L2201.4009,1798.73991 L2194.24631,1801.2349 L2201.34833,1805.32032 L2199.91774,1813.01164 L2187.10847,1812.02088 Z M2230.17921,1779.48125 L2225.88452,1779.48125 L2221.15223,1769.96494 L2215.67151,1774.02577 L2210.68007,1770.70398 L2210.68007,1763.07534 L2215.02204,1758.66336 L2220.84818,1755.27576 L2232.70407,1740.19959 L2242.91417,1737.74447 L2248.96241,1734 L2261.15531,1736.60731 L2259.34043,1739.24593 L2259.27337,1739.3328 L2255.32218,1743.90842 L2257.94637,1746.98817 L2256.61006,1749.50398 L2257.68065,1756.28938 L2260.87371,1759.42312 L2253.47542,1767.50737 L2243.68646,1768.36345 L2240.30445,1767.21298 L2241.85171,1758.91189 L2247.13016,1754.68697 L2242.78209,1753.11217 L2239.54914,1756.71231 L2239.45344,1756.80552 L2234.09188,1761.37115 L2234.25885,1766.06039 L2236.7429,1768.11271 L2236.53331,1768.75918 L2235.52757,1771.8558 L2233.16512,1777.90885 L2230.37438,1777.76725 L2230.17921,1779.48125 Z M2228.59973,1775.67464 L2231.82652,1775.83836 L2233.64475,1771.18382 L2234.42121,1768.78884 L2232.2921,1767.02977 L2232.05872,1760.4756 L2238.1058,1755.32621 L2242.19512,1750.77244 L2251.16329,1754.02057 L2243.68167,1760.00893 L2242.58788,1765.87719 L2243.93181,1766.33436 L2252.5256,1765.5828 L2258.09438,1759.4977 L2255.80809,1757.25389 L2254.53038,1749.15578 L2255.54237,1747.25056 L2252.68721,1743.89973 L2257.72373,1738.06724 L2257.81278,1737.93776 L2249.33104,1736.12404 L2243.69395,1739.61398 L2233.84689,1741.9818 L2222.18398,1756.81257 L2216.25931,1760.25746 L2212.68007,1763.89442 L2212.68007,1769.63257 L2215.60983,1771.58231 L2221.87993,1766.93661 L2227.1236,1777.48125 L2228.39402,1777.48125 L2228.59973,1775.67464 Z"/></g></g><text font-family="'Helvetica Neue', Helvetica, Arial-Unicode, Arial, Sans-serif" font-weight="bold" font-size="5px" fill="#000000" y="111" x="0">Created by Andrejs Kirma</text><text font-family="'Helvetica Neue', Helvetica, Arial-Unicode, Arial, Sans-serif" font-weight="bold" font-size="5px" fill="#000000" y="116" x="0">from the Noun Project</text></svg>