<svg y="0px" x="0px" version="1.1" viewBox="0 0 95.25 100.5" xmlns="http://www.w3.org/2000/svg" style="max-height: 500px" width="95.25" height="100.5"><g transform="translate(0,-952.36216)"><path d="m 83.48051,1028.1737 a 0.48466355,0.48466355 0 0 0 -0.321,0.1144 l -1.21424,1.0271 a 0.48466355,0.48466355 0 0 0 -0.17146,0.3542 l -0.0322,0.9917 -1.2732,1.3108 a 0.48466355,0.48466355 0 0 0 -0.13224,0.2707 l -0.23879,1.7081 -2.26785,1.7756 -1.92818,1.4022 a 0.48466355,0.48466355 0 0 0 -0.0841,0.078 l -1.09445,1.2862 c -0.01,0.01 -0.46205,0.4915 -0.92596,1.0038 -0.23445,0.259 -0.46924,0.5228 -0.65066,0.738 -0.0907,0.1077 -0.16759,0.2019 -0.22959,0.2856 -0.031,0.042 -0.0579,0.08 -0.0857,0.1266 -0.0278,0.047 -0.0892,0.041 -0.0892,0.2972 0,-0.062 -0.001,0 -0.009,0.059 -0.008,0.056 -0.0191,0.1325 -0.033,0.2215 -0.0278,0.1781 -0.0656,0.4051 -0.10331,0.6274 -0.0755,0.4447 -0.15117,0.8714 -0.15117,0.8714 a 0.48466355,0.48466355 0 0 0 0.37942,0.5592 l 2.76544,0.5696 2.49961,0.5695 a 0.48466355,0.48466355 0 0 0 0.47596,-0.1577 l 2.04907,-2.3963 a 0.48466355,0.48466355 0 0 0 0.0925,-0.1647 l 0.64498,-1.9779 a 0.48466355,0.48466355 0 0 0 0.0197,-0.086 l 0.19228,-1.4449 2.86658,-1.2965 a 0.48466355,0.48466355 0 0 0 0.23041,-0.6647 l -0.36346,-0.7004 0.32939,-0.5081 1.50631,-1.9626 a 0.48466355,0.48466355 0 0 0 0.0857,-0.1779 l 0.30343,-1.2172 a 0.48466355,0.48466355 0 0 0 0.0135,-0.1488 l -0.11386,-1.7494 a 0.48466355,0.48466355 0 0 0 -0.6658,-0.4178 l -1.17449,0.4768 -0.67446,-1.3814 a 0.48466355,0.48466355 0 0 0 -0.42728,-0.2718 z m -0.17037,1.2564 0.59955,1.2283 a 0.48466355,0.48466355 0 0 0 0.61767,0.2367 l 0.97166,-0.3943 0.0652,1.0041 -0.26069,1.046 -1.45655,1.8979 a 0.48466355,0.48466355 0 0 0 -0.0222,0.031 l -0.49327,0.7607 a 0.48466355,0.48466355 0 0 0 -0.0238,0.4871 l 0.25799,0.4967 -2.64591,1.1967 a 0.48466355,0.48466355 0 0 0 -0.28071,0.3775 l -0.22176,1.6675 -0.60144,1.8441 -1.79621,2.1007 -2.21917,-0.5057 a 0.48466355,0.48466355 0 0 0 -0.01,0 l -2.3103,-0.4757 c 0.0279,-0.1599 0.0358,-0.2022 0.0717,-0.4138 0.0381,-0.2245 0.0764,-0.4541 0.10547,-0.6398 0.0145,-0.093 0.0266,-0.1744 0.0357,-0.2415 0.002,-0.013 0.002,-0.026 0.004,-0.037 0.0398,-0.054 0.10733,-0.1378 0.19038,-0.2363 0.16727,-0.1984 0.39748,-0.4575 0.62795,-0.7121 0.46092,-0.509 0.92379,-1.0014 0.92379,-1.0014 a 0.48466355,0.48466355 0 0 0 0.016,-0.018 l 1.06307,-1.2492 1.8887,-1.3735 a 0.48466355,0.48466355 0 0 0 0.0138,-0.01 l 2.42875,-1.902 a 0.48466355,0.48466355 0 0 0 0.18119,-0.3145 l 0.24366,-1.7448 1.29348,-1.3316 a 0.48466355,0.48466355 0 0 0 0.13684,-0.3221 l 0.0311,-0.9638 0.57467,-0.486 z m -9.61928,11.6735 c -0.0133,0.034 -0.0273,0.039 -0.0276,0.04 -5.5e-4,0 0.0123,-0.018 0.0276,-0.04 z" style="color:#000000;font-style:normal;font-variant:normal;font-weight:normal;font-stretch:normal;font-size:medium;line-height:normal;font-family:sans-serif;text-indent:0;text-align:start;text-decoration:none;text-decoration-line:none;text-decoration-style:solid;text-decoration-color:#000000;letter-spacing:normal;word-spacing:normal;text-transform:none;direction:ltr;block-progression:tb;writing-mode:lr-tb;baseline-shift:baseline;text-anchor:start;white-space:normal;clip-rule:nonzero;display:inline;overflow:visible;visibility:visible;opacity:1;isolation:auto;mix-blend-mode:normal;color-interpolation:sRGB;color-interpolation-filters:linearRGB;solid-color:#000000;solid-opacity:1;fill:#000000;fill-opacity:1;fill-rule:evenodd;stroke:none;stroke-width:7;stroke-linecap:round;stroke-linejoin:round;stroke-miterlimit:4;stroke-dasharray:none;stroke-dashoffset:0;stroke-opacity:1;color-rendering:auto;image-rendering:auto;shape-rendering:auto;text-rendering:auto;enable-background:accumulate"/><path d="m 83.02997,1013.2642 a 0.48466355,0.48466355 0 0 0 -0.35724,0.7818 l 0.86052,1.1039 0.0635,0.7321 a 0.48466355,0.48466355 0 0 0 0.10844,0.2656 l 1.0409,1.2669 1.19909,1.9669 0.56494,2.0531 -0.1793,1.7622 -0.17876,1.1939 -0.56331,0.1471 a 0.48466355,0.48466355 0 0 0 -0.28097,0.2007 l -0.45541,0.6845 a 0.48466355,0.48466355 0 0 0 -0.0176,0.5084 l 0.45541,0.7988 a 0.48466355,0.48466355 0 0 0 0.24366,0.211 l 1.04224,0.4105 0.66743,0.3345 0.30802,0.6415 -0.62307,1.0309 a 0.48466355,0.48466355 0 0 0 -0.0414,0.087 l -0.34183,0.9508 a 0.48466355,0.48466355 0 0 0 0.39835,0.645 l 0.56304,0.068 0.0373,0.374 a 0.48466355,0.48466355 0 0 0 0.84591,0.272 l 0.51869,-0.5892 0.95896,-0.5696 a 0.48466355,0.48466355 0 0 0 0.16902,-0.1687 l 1.17638,-1.978 a 0.48466355,0.48466355 0 0 0 0.0303,-0.06 l 0.60712,-1.4455 a 0.48466355,0.48466355 0 0 0 0.0333,-0.2536 l -0.10438,-0.7594 0.500295,-0.2507 0.676351,0.4519 a 0.48466355,0.48466355 0 0 0 0.753696,-0.4148 l -0.0265,-1.0618 0.03462,0 a 0.48466355,0.48466355 0 0 0 0.361568,-0.2079 l 0.341286,-0.4944 a 0.48466355,0.48466355 0 0 0 0.086,-0.2755 l 0,-0.8186 0.426202,-0.7229 a 0.48466355,0.48466355 0 0 0 -0.176592,-0.6666 l -0.796965,-0.4565 a 0.48466355,0.48466355 0 0 0 -0.240685,-0.064 l -0.303696,0 a 0.48466355,0.48466355 0 0 0 -0.26908,0.082 l -0.683114,0.4565 a 0.48466355,0.48466355 0 0 0 -0.06193,0.049 l -0.518146,0.4846 -0.016,0.01 -1.41058,-0.7561 a 0.48466355,0.48466355 0 0 0 -0.1601,-0.052 l -0.20742,-0.03 -0.49111,-2.0023 a 0.48466355,0.48466355 0 0 0 -0.49516,-0.3686 l -0.75883,0.038 a 0.48466355,0.48466355 0 0 0 -0.28044,0.1079 l -0.25042,-0.3743 -0.41917,-1.5447 a 0.48466355,0.48466355 0 0 0 -0.002,-0.01 l -0.4554,-1.5593 a 0.48466355,0.48466355 0 0 0 -0.25151,-0.2994 l -1.83975,-0.903 -1.53687,-0.9392 a 0.48466355,0.48466355 0 0 0 -0.27746,-0.07 z m 1.47927,1.9247 1.5558,0.7637 0.39402,1.35 0.43891,1.6169 a 0.48466355,0.48466355 0 0 0 0.0649,0.1425 l 1.07795,1.6118 a 0.48466355,0.48466355 0 0 0 0.8789,-0.182 l 0.30559,1.2451 a 0.48466355,0.48466355 0 0 0 0.40186,0.3642 l 0.44649,0.064 1.55634,0.8343 a 0.48466355,0.48466355 0 0 0 0.44621,0.01 l 0.303426,-0.1522 a 0.48466355,0.48466355 0 0 0 0.113851,-0.079 l 0.540324,-0.5054 0.528156,-0.3529 0.02758,0 0.259074,0.1485 -0.244201,0.414 a 0.48466355,0.48466355 0 0 0 -0.06707,0.2461 l 0,0.7999 -0.124397,0.1801 -0.263131,0.02 a 0.48466355,0.48466355 0 0 0 -0.447026,0.4952 l 0.0146,0.5871 -0.133595,-0.089 a 0.48466355,0.48466355 0 0 0 -0.486511,-0.03 l -1.06253,0.5324 a 0.48466355,0.48466355 0 0 0 -0.26313,0.4995 l 0.13387,0.9714 -0.54276,1.2922 -1.09633,1.8429 -0.91839,0.5455 a 0.48466355,0.48466355 0 0 0 -0.0132,0.01 0.48466355,0.48466355 0 0 0 -0.32669,-0.1874 l -0.34507,-0.041 0.11981,-0.3332 0.73395,-1.214 a 0.48466355,0.48466355 0 0 0 0.0222,-0.4605 l -0.49354,-1.0268 a 0.48466355,0.48466355 0 0 0 -0.21959,-0.2234 l -0.83482,-0.4184 a 0.48466355,0.48466355 0 0 0 -0.0395,-0.018 l -0.90378,-0.3559 -0.22284,-0.3908 0.18768,-0.282 0.6942,-0.1815 a 0.48466355,0.48466355 0 0 0 0.3567,-0.3973 l 0.22771,-1.5214 a 0.48466355,0.48466355 0 0 0 0.003,-0.023 l 0.18984,-1.8638 a 0.48466355,0.48466355 0 0 0 -0.0149,-0.1777 l -0.60712,-2.2061 a 0.48466355,0.48466355 0 0 0 -0.0536,-0.1236 l -1.25237,-2.054 a 0.48466355,0.48466355 0 0 0 -0.0392,-0.055 l -0.96734,-1.1772 -0.04,-0.4595 z" style="color:#000000;font-style:normal;font-variant:normal;font-weight:normal;font-stretch:normal;font-size:medium;line-height:normal;font-family:sans-serif;text-indent:0;text-align:start;text-decoration:none;text-decoration-line:none;text-decoration-style:solid;text-decoration-color:#000000;letter-spacing:normal;word-spacing:normal;text-transform:none;direction:ltr;block-progression:tb;writing-mode:lr-tb;baseline-shift:baseline;text-anchor:start;white-space:normal;clip-rule:nonzero;display:inline;overflow:visible;visibility:visible;opacity:1;isolation:auto;mix-blend-mode:normal;color-interpolation:sRGB;color-interpolation-filters:linearRGB;solid-color:#000000;solid-opacity:1;fill:#000000;fill-opacity:1;fill-rule:evenodd;stroke:none;stroke-width:7;stroke-linecap:round;stroke-linejoin:round;stroke-miterlimit:4;stroke-dasharray:none;stroke-dashoffset:0;stroke-opacity:1;color-rendering:auto;image-rendering:auto;shape-rendering:auto;text-rendering:auto;enable-background:accumulate"/><path d="m 43.24475,975.58507 a 0.48466355,0.48466355 0 0 0 -0.1774,0.041 l -0.63606,0.2829 a 0.48466355,0.48466355 0 0 0 -0.28639,0.4073 l -0.0957,1.3051 -0.47813,0.6274 a 0.48466355,0.48466355 0 0 0 0.17389,0.7291 l -0.61523,1.3007 a 0.48466355,0.48466355 0 0 0 -0.0389,0.2921 l 0.25719,1.4466 -1.35163,3.1329 -0.76559,-0.1033 -0.72855,-0.8199 a 0.48466355,0.48466355 0 0 0 -0.16415,-0.1201 l -3.00829,-1.3484 -1.34811,-1.1793 0.76587,-1.3895 a 0.48466355,0.48466355 0 0 0 0.0525,-0.3175 0.48466355,0.48466355 0 0 0 0.43134,-0.4562 l 0.0233,-0.4427 0.48678,-0.3586 a 0.48466355,0.48466355 0 0 0 0.1125,-0.6639 l -0.4592,-0.6715 a 0.48466355,0.48466355 0 0 0 -0.71799,-0.092 l -0.28856,0.251 a 0.48466355,0.48466355 0 0 0 -0.3859,-0.075 l -0.7061,0.1628 -0.5644,-0.4029 a 0.48466355,0.48466355 0 0 0 -0.4984,-0.039 l -0.3851,0.1925 -0.0249,-0.094 a 0.48466355,0.48466355 0 0 0 -0.54844,-0.3548 l -0.50165,0.083 -1.88789,-0.7615 a 0.48466355,0.48466355 0 0 0 -0.53086,0.785 l 0.57305,0.5966 -1.1707,0.1379 -0.50165,0 a 0.48466355,0.48466355 0 0 0 -0.17011,0.031 l -0.56547,0.212 a 0.48466355,0.48466355 0 0 0 -0.29667,0.3248 0.48466355,0.48466355 0 0 0 -0.43134,0.5838 l 0.12332,0.5752 -0.48488,0.1745 a 0.48466355,0.48466355 0 0 0 -0.25664,0.2155 l -0.56548,0.9893 a 0.48466355,0.48466355 0 0 0 0.16686,0.6533 l 0.46271,0.2845 -0.0241,0.032 -1.21938,-0.4482 a 0.48466355,0.48466355 0 0 0 -0.26232,-0.02 l -0.20255,0.04 -0.76587,-1.0077 a 0.48466355,0.48466355 0 0 0 -0.36049,-0.1906 l -0.94948,-0.05 a 0.48466355,0.48466355 0 0 0 -0.32831,0.1055 l -0.41701,0.3337 -0.29747,0.074 a 0.48466355,0.48466355 0 0 0 -0.3421,0.3167 l -0.009,0.028 a 0.48466355,0.48466355 0 0 0 -0.60469,0.1173 l -0.69988,0.8497 a 0.48466355,0.48466355 0 0 0 -0.079,0.4787 l -0.0671,0.025 a 0.48466355,0.48466355 0 0 0 -0.23663,0.1904 l -0.54979,0.8495 a 0.48466355,0.48466355 0 0 0 -0.0484,0.428 l -0.34372,-0.156 a 0.48466355,0.48466355 0 0 0 -0.6796,0.5149 l 0.0376,0.2448 a 0.48466355,0.48466355 0 0 0 -0.40105,0.1381 l -1.04928,1.0493 a 0.48466355,0.48466355 0 0 0 -0.12872,0.456 l 0.23987,0.9989 -1.36244,1.4899 -2.41415,1.1585 a 0.48466355,0.48466355 0 0 0 -0.0592,0.034 l -1.94522,1.2965 -0.51626,-0.074 a 0.48466355,0.48466355 0 0 0 -0.36671,0.098 l -2.49879,1.9488 a 0.48466355,0.48466355 0 0 0 -0.17335,0.2696 l -0.0506,0.212 a 0.48466355,0.48466355 0 0 0 -0.46839,0.062 l -0.39997,0.2996 a 0.48466355,0.48466355 0 0 0 -0.1939,0.3878 l 0,3.1979 a 0.48466355,0.48466355 0 0 0 0.0476,0.2093 l 0.98058,2.0499 -0.2469,0.37023 a 0.48466355,0.48466355 0 0 0 0.0281,0.5758 l 1.75673,2.1467 0.96003,2.2075 0.39078,1.3684 a 0.48466355,0.48466355 0 0 0 0.0703,0.1463 l 1.1423,1.618 0.20391,0.9511 -0.58603,0.3256 a 0.48466355,0.48466355 0 0 0 -0.2469,0.3751 l -0.10006,0.9995 a 0.48466355,0.48466355 0 0 0 0.30234,0.4982 l 2.4988,0.9995 a 0.48466355,0.48466355 0 0 0 0.25366,0.029 l 1.29943,-0.1999 a 0.48466355,0.48466355 0 0 0 0.31614,-0.1909 l 1.55823,-2.1077 3.96103,-0.094 a 0.48466355,0.48466355 0 0 0 0.45054,-0.3386 l 0.53004,-1.6778 2.04501,-0.7999 5.61716,-1.162 3.07238,1.1945 -0.004,0.015 a 0.48466355,0.48466355 0 0 0 0.21256,0.5204 l 0.61794,0.3915 0.79128,1.9542 a 0.48466355,0.48466355 0 0 0 0.20283,0.2355 l 0.54978,0.3248 a 0.48466355,0.48466355 0 0 0 0.72395,-0.3342 l 0.0749,-0.4319 1.29078,-1.3763 -10e-4,0.072 -0.51734,0.7542 a 0.48466355,0.48466355 0 0 0 -0.0833,0.2339 l -0.0316,0.3805 -0.2131,0.1571 a 0.48466355,0.48466355 0 0 0 0.24555,0.8727 l 0.81292,0.071 a 0.48466355,0.48466355 0 0 0 0.19931,-0.025 0.48466355,0.48466355 0 0 0 0.27665,0.5125 l 1.0509,0.4827 0.11737,1.3792 a 0.48466355,0.48466355 0 0 0 0.10736,0.2653 l 1.09552,1.3427 a 0.48466355,0.48466355 0 0 0 0.21067,0.1493 l 3.32199,1.2015 a 0.48466355,0.48466355 0 0 0 0.47597,-0.084 l 1.12175,-0.9389 0.8259,1.1353 a 0.48466355,0.48466355 0 0 0 0.64769,0.1263 l 1.59041,-0.9893 a 0.48466355,0.48466355 0 0 0 0.0592,-0.043 l 0.37995,-0.3254 2.25217,-0.232 a 0.48466355,0.48466355 0 0 0 0.41808,-0.3548 l 0.76154,-2.8033 1.13528,-2.0026 2.20781,-2.0696 a 0.48466355,0.48466355 0 0 0 0.12061,-0.1787 l 1.69615,-4.3813 a 0.48466355,0.48466355 0 0 0 0.0289,-0.2369 l -0.27449,-2.1264 0.27368,-1.98533 a 0.48466355,0.48466355 0 0 0 -0.0465,-0.2831 l -1.55499,-3.1092 a 0.48466355,0.48466355 0 0 0 -0.1555,-0.1804 l -0.58981,-0.4126 -0.72368,-1.776 a 0.48466355,0.48466355 0 0 0 -0.5022,-0.2985 l -0.20606,0.023 -0.61091,-2.6873 a 0.48466355,0.48466355 0 0 0 -0.20174,-0.2945 l -3.07185,-2.0696 -0.35913,-2.5772 a 0.48466355,0.48466355 0 0 0 -0.129,-0.2675 l -0.56655,-0.5947 0.0638,-1.8811 a 0.48466355,0.48466355 0 0 0 -0.13062,-0.348 l -1.06037,-1.1307 a 0.48466355,0.48466355 0 0 0 -0.47461,-0.1377 l -0.54411,0.1404 -0.15982,-1.7297 a 0.48466355,0.48466355 0 0 0 -0.0381,-0.149 l -1.30754,-3.0032 a 0.48466355,0.48466355 0 0 0 -0.4638,-0.2907 z m -0.1674,1.2689 1.01899,2.3406 0.20499,2.2191 a 0.48466355,0.48466355 0 0 0 0.6036,0.4246 l 0.81725,-0.2109 0.72611,0.7745 -0.0638,1.8836 a 0.48466355,0.48466355 0 0 0 0.13332,0.3504 l 0.59928,0.6293 0.36725,2.6368 a 0.48466355,0.48466355 0 0 0 0.20931,0.335 l 3.09186,2.0834 0.66445,2.9221 a 0.48466355,0.48466355 0 0 0 0.52599,0.3742 l 0.27206,-0.03 0.6393,1.5687 a 0.48466355,0.48466355 0 0 0 0.17091,0.2142 l 0.60631,0.4243 1.43276,2.8653 -0.26205,1.90063 a 0.48466355,0.48466355 0 0 0 -5.6e-4,0.1281 l 0.26692,2.0686 -1.61205,4.1633 -2.18104,2.0445 a 0.48466355,0.48466355 0 0 0 -0.0903,0.1146 l -1.20153,2.12 a 0.48466355,0.48466355 0 0 0 -0.046,0.1119 l -0.69041,2.541 -2.07205,0.2134 a 0.48466355,0.48466355 0 0 0 -0.26584,0.1141 l -0.46677,0.3999 -1.17638,0.7318 -0.86565,-1.1901 a 0.48466355,0.48466355 0 0 0 -0.70286,-0.087 l -1.30591,1.0931 -2.93393,-1.0612 -0.91622,-1.1228 -0.12846,-1.5115 a 0.48466355,0.48466355 0 0 0 -0.28069,-0.3991 l -0.94733,-0.4351 0.19174,-0.8154 a 0.48466355,0.48466355 0 0 0 -0.75748,-0.5024 l -0.54384,0.3975 0.0103,-0.125 0.52708,-0.7685 a 0.48466355,0.48466355 0 0 0 0.0849,-0.2659 l 0.0251,-1.4741 a 0.48466355,0.48466355 0 0 0 -0.83807,-0.3396 l -2.24919,2.3984 a 0.48466355,0.48466355 0 0 0 -0.006,0.01 l -0.69068,-1.7059 a 0.48466355,0.48466355 0 0 0 -0.19011,-0.2274 l -0.45812,-0.2902 0.0208,-0.089 a 0.48466355,0.48466355 0 0 0 -0.29613,-0.5627 l -3.59837,-1.399 a 0.48466355,0.48466355 0 0 0 -0.27395,-0.023 l -5.79753,1.1994 a 0.48466355,0.48466355 0 0 0 -0.0784,0.023 l -2.29895,0.8994 a 0.48466355,0.48466355 0 0 0 -0.28557,0.3053 l -0.49517,1.5685 -3.85204,0.092 a 0.48466355,0.48466355 0 0 0 -0.37806,0.1964 l -1.58068,2.138 -0.97139,0.1493 -2.03744,-0.8148 0.0384,-0.3843 0.67798,-0.3765 a 0.48466355,0.48466355 0 0 0 0.23852,-0.5251 l -0.29991,-1.3993 a 0.48466355,0.48466355 0 0 0 -0.0779,-0.1779 l -1.15204,-1.6318 -0.37725,-1.32 a 0.48466355,0.48466355 0 0 0 -0.0214,-0.06 l -0.99979,-2.2987 a 0.48466355,0.48466355 0 0 0 -0.0692,-0.1136 l -1.57229,-1.9211 0.20093,-0.3013 a 0.48466355,0.48466355 0 0 0 0.0341,-0.47783 l -1.05225,-2.1995 0,-2.5693 0.005,0.01 a 0.48466355,0.48466355 0 0 0 0.83158,-0.2121 l 0.21067,-0.884 2.2024,-1.7175 0.49544,0.071 a 0.48466355,0.48466355 0 0 0 0.33722,-0.077 l 2.07098,-1.38 2.46824,-1.1845 a 0.48466355,0.48466355 0 0 0 0.14792,-0.1101 l 1.59934,-1.7489 a 0.48466355,0.48466355 0 0 0 0.11358,-0.44 l -0.23663,-0.9854 0.42242,-0.4222 0.22878,0.3743 a 0.48466355,0.48466355 0 0 0 0.64336,0.1739 l 0.64958,-0.3497 a 0.48466355,0.48466355 0 0 0 0.13819,-0.742 l -0.0489,-0.057 a 0.48466355,0.48466355 0 0 0 0.39997,-0.1122 l 0.39997,-0.35 a 0.48466355,0.48466355 0 0 0 0.053,-0.675 l -0.27124,-0.3256 0.26881,-0.4156 0.65011,-0.2437 a 0.48466355,0.48466355 0 0 0 0.12738,-0.8361 l -0.0565,-0.044 0.11737,-0.1425 0.14197,0.085 a 0.48466355,0.48466355 0 0 0 0.70908,-0.2623 l 0.11574,-0.3472 0.14171,-0.035 a 0.48466355,0.48466355 0 0 0 0.18525,-0.092 l 0.35561,-0.2845 0.54114,0.028 0.81346,1.0704 a 0.48466355,0.48466355 0 0 0 0.48083,0.182 l 0.36589,-0.073 1.42708,0.5246 a 0.48466355,0.48466355 0 0 0 0.55276,-0.1612 l 0.56548,-0.742 a 0.48466355,0.48466355 0 0 0 -0.13143,-0.7064 l -0.51924,-0.3194 0.24394,-0.427 0.71529,-0.2574 a 0.48466355,0.48466355 0 0 0 0.30991,-0.5577 l -0.0765,-0.357 a 0.48466355,0.48466355 0 0 0 0.3329,-0.5003 l -0.005,-0.059 0.14008,-0.053 0.44216,0 a 0.48466355,0.48466355 0 0 0 0.0565,0 l 1.80243,-0.212 a 0.48466355,0.48466355 0 0 0 0.42647,-0.5185 l -0.0184,-0.2387 0.48489,0.1955 a 0.48466355,0.48466355 0 0 0 0.26097,0.029 l 0.20039,-0.034 0.0641,0.2439 a 0.48466355,0.48466355 0 0 0 0.68528,0.3102 l 0.65796,-0.3288 0.5049,0.3605 a 0.48466355,0.48466355 0 0 0 0.3905,0.078 l 0.42431,-0.098 a 0.48466355,0.48466355 0 0 0 0.57115,0.3077 l -0.009,0.1761 -0.24718,0 a 0.48466355,0.48466355 0 0 0 -0.43323,0.7012 l 0.16875,0.3375 -0.83131,1.5085 a 0.48466355,0.48466355 0 0 0 0.1052,0.5987 l 1.69642,1.4839 a 0.48466355,0.48466355 0 0 0 0.12088,0.078 l 2.97963,1.3354 0.77912,0.8762 a 0.48466355,0.48466355 0 0 0 0.2972,0.1584 l 1.30781,0.1766 a 0.48466355,0.48466355 0 0 0 0.50977,-0.2882 l 1.55498,-3.6041 a 0.48466355,0.48466355 0 0 0 0.0322,-0.2766 l -0.25556,-1.4379 0.85267,-1.8036 a 0.48466355,0.48466355 0 0 0 -0.0971,-0.5508 l 0.0798,-0.1047 a 0.48466355,0.48466355 0 0 0 0.0979,-0.2582 l 0.0719,-0.982 z" style="color:#000000;font-style:normal;font-variant:normal;font-weight:normal;font-stretch:normal;font-size:medium;line-height:normal;font-family:sans-serif;text-indent:0;text-align:start;text-decoration:none;text-decoration-line:none;text-decoration-style:solid;text-decoration-color:#000000;letter-spacing:normal;word-spacing:normal;text-transform:none;direction:ltr;block-progression:tb;writing-mode:lr-tb;baseline-shift:baseline;text-anchor:start;white-space:normal;clip-rule:nonzero;display:inline;overflow:visible;visibility:visible;opacity:1;isolation:auto;mix-blend-mode:normal;color-interpolation:sRGB;color-interpolation-filters:linearRGB;solid-color:#000000;solid-opacity:1;fill:#000000;fill-opacity:1;fill-rule:evenodd;stroke:none;stroke-width:7;stroke-linecap:round;stroke-linejoin:round;stroke-miterlimit:4;stroke-dasharray:none;stroke-dashoffset:0;stroke-opacity:1;color-rendering:auto;image-rendering:auto;shape-rendering:auto;text-rendering:auto;enable-background:accumulate"/><path d="m 43.29289,1017.7696 a 0.48466355,0.48466355 0 0 0 -0.45,0.3911 l -0.20012,1.0244 a 0.48466355,0.48466355 0 0 0 0.0538,0.3312 l 0.4281,0.7575 0.14982,-0.1 a 0.48466355,0.48466355 0 0 0 -0.15929,0.6306 l 0.41593,0.7829 0.2423,0.5571 a 0.48466355,0.48466355 0 0 0 0.22771,0.2404 l 0.89973,0.4497 a 0.48466355,0.48466355 0 0 0 0.67554,-0.2774 l 0.17416,-0.5119 0.17389,0.1738 a 0.48466355,0.48466355 0 0 0 0.80156,-0.1871 l 0.52491,-1.549 a 0.48466355,0.48466355 0 0 0 0.0251,-0.1342 l 0.0749,-1.6991 a 0.48466355,0.48466355 0 0 0 -0.62903,-0.4838 l -1.49198,0.4676 -1.70183,-0.8167 a 0.48466355,0.48466355 0 0 0 -0.23527,-0.047 z m 0.38104,1.1921 1.30889,0.6282 a 0.48466355,0.48466355 0 0 0 0.35454,0.025 l 1.01493,-0.318 -0.0414,0.9397 -0.25258,0.7454 -0.17335,-0.1734 a 0.48466355,0.48466355 0 0 0 -0.80129,0.1866 l -0.24609,0.7237 -0.24556,-0.1228 -0.17956,-0.4132 a 0.48466355,0.48466355 0 0 0 -0.0165,-0.034 l -0.21905,-0.4121 -0.13981,0.093 a 0.48466355,0.48466355 0 0 0 0.15279,-0.6418 l -0.56169,-0.9935 0.0457,-0.2334 z" style="color:#000000;font-style:normal;font-variant:normal;font-weight:normal;font-stretch:normal;font-size:medium;line-height:normal;font-family:sans-serif;text-indent:0;text-align:start;text-decoration:none;text-decoration-line:none;text-decoration-style:solid;text-decoration-color:#000000;letter-spacing:normal;word-spacing:normal;text-transform:none;direction:ltr;block-progression:tb;writing-mode:lr-tb;baseline-shift:baseline;text-anchor:start;white-space:normal;clip-rule:nonzero;display:inline;overflow:visible;visibility:visible;opacity:1;isolation:auto;mix-blend-mode:normal;color-interpolation:sRGB;color-interpolation-filters:linearRGB;solid-color:#000000;solid-opacity:1;fill:#000000;fill-opacity:1;fill-rule:evenodd;stroke:none;stroke-width:7;stroke-linecap:round;stroke-linejoin:round;stroke-miterlimit:4;stroke-dasharray:none;stroke-dashoffset:0;stroke-opacity:1;color-rendering:auto;image-rendering:auto;shape-rendering:auto;text-rendering:auto;enable-background:accumulate"/><path d="m 30.84623,963.04267 a 0.48466355,0.48466355 0 0 0 -0.14468,0.027 l -2.36899,0.8359 a 0.48466355,0.48466355 0 0 0 -0.28882,0.2772 l -0.13928,0.3484 a 0.48466355,0.48466355 0 0 0 0.31938,0.6466 l 1.58798,0.4445 0.0522,0.067 -0.32506,0 a 0.48466355,0.48466355 0 0 0 -0.20742,0.9225 l 1.13689,0.5387 0.21338,0.6395 a 0.48466355,0.48466355 0 0 0 0.5057,0.3292 l 1.13258,-0.1077 0.19958,0.3994 a 0.48466355,0.48466355 0 0 0 0.29801,0.2486 l 3.2122,0.9368 0.49111,0.5454 0.39212,0.784 -0.30613,0.071 a 0.48466355,0.48466355 0 0 0 -0.31181,0.7126 l 0.27882,0.4876 a 0.48466355,0.48466355 0 0 0 0.43999,0.2439 l 1.53011,-0.061 0.9649,0.9646 a 0.48466355,0.48466355 0 0 0 0.37266,0.1412 l 1.03981,-0.065 0.20607,0.052 a 0.48466355,0.48466355 0 0 0 0.33426,-0.037 l 0.97545,-0.4876 a 0.48466355,0.48466355 0 0 0 0.026,-0.8521 l 0.0235,-0.021 2.42983,0.652 1.50144,2.2189 a 0.48466355,0.48466355 0 0 0 0.26611,0.1939 l 2.09991,0.6093 0.2945,0.1768 a 0.48466355,0.48466355 0 0 0 0.4354,0.032 l 0.83617,-0.3483 a 0.48466355,0.48466355 0 0 0 0.10033,-0.8381 l -0.95057,-0.6972 -0.29612,-0.5917 a 0.48466355,0.48466355 0 0 0 -0.43323,-0.268 l -0.49706,0 -0.44134,-1.2134 a 0.48466355,0.48466355 0 0 0 -0.23852,-0.268 l -0.49246,-0.2461 a 0.48466355,0.48466355 0 0 0 0.24339,-0.6006 l -0.27882,-0.7664 a 0.48466355,0.48466355 0 0 0 -0.26232,-0.2789 l -1.44113,-0.6263 -0.26936,-0.5392 a 0.48466355,0.48466355 0 0 0 -0.046,-0.074 l -0.83618,-1.1147 a 0.48466355,0.48466355 0 0 0 -0.20715,-0.1588 l -7.45528,-2.9956 a 0.48466355,0.48466355 0 0 0 -0.44946,0.046 l -1.25427,0.836 a 0.48466355,0.48466355 0 0 0 -0.0741,0.061 l -0.87729,0.8773 -0.62253,-0.078 -0.99898,-1.9974 a 0.48466355,0.48466355 0 0 0 -0.13387,-0.1644 l -0.97545,-0.7662 a 0.48466355,0.48466355 0 0 0 -0.31613,-0.1033 z m -0.0733,1.0301 0.68068,0.5344 1.06632,2.1321 a 0.48466355,0.48466355 0 0 0 0.37319,0.2642 l 1.115,0.1393 a 0.48466355,0.48466355 0 0 0 0.40267,-0.1382 l 1.01115,-1.0109 1.00195,-0.6677 7.09263,2.8498 0.72882,0.9711 0.32885,0.6577 a 0.48466355,0.48466355 0 0 0 0.24014,0.2277 l 1.26211,0.5485 a 0.48466355,0.48466355 0 0 0 -0.34399,0.6233 l 0.20904,0.6269 a 0.48466355,0.48466355 0 0 0 0.24312,0.2804 l 0.80264,0.4011 0.49138,1.3513 a 0.48466355,0.48466355 0 0 0 0.45541,0.3189 l 0.53681,0 0.21445,0.4289 a 0.48466355,0.48466355 0 0 0 0.0906,0.1252 l -1.65343,-0.4801 -1.50441,-2.2234 a 0.48466355,0.48466355 0 0 0 -0.27585,-0.1967 l -2.85685,-0.7661 a 0.48466355,0.48466355 0 0 0 -0.44729,0.1058 l -0.4592,0.408 -0.26529,-0.038 a 0.48466355,0.48466355 0 0 0 -0.30315,0.9032 0.48466355,0.48466355 0 0 0 -0.0744,0 l -0.89649,0.056 -0.9603,-0.9601 a 0.48466355,0.48466355 0 0 0 -0.36211,-0.1414 l -0.64147,0.026 a 0.48466355,0.48466355 0 0 0 -0.0206,-0.3851 l -0.69664,-1.3935 a 0.48466355,0.48466355 0 0 0 -0.0733,-0.1074 l -0.62741,-0.6966 a 0.48466355,0.48466355 0 0 0 -0.22446,-0.1409 l -3.14134,-0.9163 -0.25367,-0.5073 a 0.48466355,0.48466355 0 0 0 -0.47947,-0.2658 l -1.07957,0.103 -0.15306,-0.4594 0.0941,0 a 0.48466355,0.48466355 0 0 0 0.18633,-0.932 l -0.71827,-0.2993 -0.40944,-0.5263 a 0.48466355,0.48466355 0 0 0 -0.25204,-0.169 l -0.73801,-0.2066 1.28401,-0.453 z" style="color:#000000;font-style:normal;font-variant:normal;font-weight:normal;font-stretch:normal;font-size:medium;line-height:normal;font-family:sans-serif;text-indent:0;text-align:start;text-decoration:none;text-decoration-line:none;text-decoration-style:solid;text-decoration-color:#000000;letter-spacing:normal;word-spacing:normal;text-transform:none;direction:ltr;block-progression:tb;writing-mode:lr-tb;baseline-shift:baseline;text-anchor:start;white-space:normal;clip-rule:nonzero;display:inline;overflow:visible;visibility:visible;opacity:1;isolation:auto;mix-blend-mode:normal;color-interpolation:sRGB;color-interpolation-filters:linearRGB;solid-color:#000000;solid-opacity:1;fill:#000000;fill-opacity:1;fill-rule:evenodd;stroke:none;stroke-width:7;stroke-linecap:round;stroke-linejoin:round;stroke-miterlimit:4;stroke-dasharray:none;stroke-dashoffset:0;stroke-opacity:1;color-rendering:auto;image-rendering:auto;shape-rendering:auto;text-rendering:auto;enable-background:accumulate"/><path d="m 22.71054,972.09897 a 0.48466355,0.48466355 0 0 0 -0.2653,0.079 l -1.81163,1.1843 a 0.48466355,0.48466355 0 0 0 -0.20498,0.288 l -0.27855,1.1147 a 0.48466355,0.48466355 0 0 0 0.42188,0.5998 l 0.6969,0.069 a 0.48466355,0.48466355 0 0 0 0.32425,-0.084 l 3.41448,-2.3684 a 0.48466355,0.48466355 0 0 0 -0.27638,-0.8827 l -2.02067,0 z m 0.14414,0.9692 0.32776,0 -1.94684,1.3505 0.0874,-0.3491 1.53173,-1.0014 z" style="color:#000000;font-style:normal;font-variant:normal;font-weight:normal;font-stretch:normal;font-size:medium;line-height:normal;font-family:sans-serif;text-indent:0;text-align:start;text-decoration:none;text-decoration-line:none;text-decoration-style:solid;text-decoration-color:#000000;letter-spacing:normal;word-spacing:normal;text-transform:none;direction:ltr;block-progression:tb;writing-mode:lr-tb;baseline-shift:baseline;text-anchor:start;white-space:normal;clip-rule:nonzero;display:inline;overflow:visible;visibility:visible;opacity:1;isolation:auto;mix-blend-mode:normal;color-interpolation:sRGB;color-interpolation-filters:linearRGB;solid-color:#000000;solid-opacity:1;fill:#000000;fill-opacity:1;fill-rule:evenodd;stroke:none;stroke-width:7;stroke-linecap:round;stroke-linejoin:round;stroke-miterlimit:4;stroke-dasharray:none;stroke-dashoffset:0;stroke-opacity:1;color-rendering:auto;image-rendering:auto;shape-rendering:auto;text-rendering:auto;enable-background:accumulate"/><path d="m 25.24097,960.29077 a 0.48466355,0.48466355 0 0 0 -0.4527,0.3118 l -1.17178,3.0721 a 0.48466355,0.48466355 0 0 0 0.0909,0.4949 l 1.17151,1.3168 a 0.48466355,0.48466355 0 0 0 0.36211,0.1625 l 1.28916,0 a 0.48466355,0.48466355 0 0 0 0.41349,-0.7372 l -0.48786,-0.7991 0.19146,0 a 0.48466355,0.48466355 0 0 0 0.33128,-0.8384 l -0.53383,-0.4995 0.50949,-0.4175 a 0.48466355,0.48466355 0 0 0 -0.30694,-0.8597 l -0.60577,0 -0.34885,-0.8976 a 0.48466355,0.48466355 0 0 0 -0.45163,-0.3091 z m 0.004,1.8335 0.013,0.033 a 0.48466355,0.48466355 0 0 0 0.15631,0.208 l -0.0116,0.01 a 0.48466355,0.48466355 0 0 0 -0.0241,0.7288 l 0.0668,0.062 a 0.48466355,0.48466355 0 0 0 -0.26664,0.7139 l 0.48786,0.7991 -0.20824,0 -0.83158,-0.9343 0.61821,-1.621 z" style="color:#000000;font-style:normal;font-variant:normal;font-weight:normal;font-stretch:normal;font-size:medium;line-height:normal;font-family:sans-serif;text-indent:0;text-align:start;text-decoration:none;text-decoration-line:none;text-decoration-style:solid;text-decoration-color:#000000;letter-spacing:normal;word-spacing:normal;text-transform:none;direction:ltr;block-progression:tb;writing-mode:lr-tb;baseline-shift:baseline;text-anchor:start;white-space:normal;clip-rule:nonzero;display:inline;overflow:visible;visibility:visible;opacity:1;isolation:auto;mix-blend-mode:normal;color-interpolation:sRGB;color-interpolation-filters:linearRGB;solid-color:#000000;solid-opacity:1;fill:#000000;fill-opacity:1;fill-rule:evenodd;stroke:none;stroke-width:7;stroke-linecap:round;stroke-linejoin:round;stroke-miterlimit:4;stroke-dasharray:none;stroke-dashoffset:0;stroke-opacity:1;color-rendering:auto;image-rendering:auto;shape-rendering:auto;text-rendering:auto;enable-background:accumulate"/></g><text font-family="'Helvetica Neue', Helvetica, Arial-Unicode, Arial, Sans-serif" font-weight="bold" font-size="5px" fill="#000000" y="115" x="0">Created by P Thanga Vignesh</text><text font-family="'Helvetica Neue', Helvetica, Arial-Unicode, Arial, Sans-serif" font-weight="bold" font-size="5px" fill="#000000" y="120" x="0">from the Noun Project</text></svg>